<svg width="24" height="24" viewBox="0 0 24 24" fill="none" xmlns="http://www.w3.org/2000/svg">
<path d="M14 18.5C14 19.3284 13.1046 20 12 20C10.8954 20 10 19.3284 10 18.5C10 17.6716 10.8954 17 12 17C13.1046 17 14 17.6716 14 18.5Z" stroke="#334155"/>
<path d="M7 5.5C7 4.79289 7 4.43934 7.24408 4.21967C7.48816 4 7.88099 4 8.66667 4H15.3333C16.119 4 16.5118 4 16.7559 4.21967C17 4.43934 17 4.79289 17 5.5C17 6.20711 17 6.56066 16.7559 6.78033C16.5118 7 16.119 7 15.3333 7H8.66667C7.88099 7 7.48816 7 7.24408 6.78033C7 6.56066 7 6.20711 7 5.5Z" stroke="#334155"/>
<path d="M9 15.5C9 14.6716 9.57563 14 10.2857 14H13.7143C14.4244 14 15 14.6716 15 15.5C15 16.3284 14.4244 17 13.7143 17H10.2857C9.57563 17 9 16.3284 9 15.5Z" stroke="#334155"/>
<path d="M14 15V7" stroke="#334155"/>
<path d="M10 15V7" stroke="#334155"/>
<path d="M9 9L15 10.4545M9 11.5455L15 13" stroke="#334155" stroke-linecap="round"/>
<path d="M18.4 11.4997L20 11.4997M5.6 11.5003H4M17.657 13.5L18.2227 14M6.34297 13.5L5.77728 14M17.657 9.49997L18.2227 9M6.34297 9.49997L5.77728 9" stroke="#334155" stroke-linecap="round"/>
</svg>
