<svg width="24" height="24" viewBox="0 0 24 24" fill="none" xmlns="http://www.w3.org/2000/svg">
<path d="M17.3278 9.02888L17.6224 8.73429C17.8963 8.46034 18.0333 8.32336 18.1156 8.18086C18.3388 7.79417 18.3388 7.31774 18.1156 6.93105C18.0333 6.78855 17.8963 6.65157 17.6224 6.37762C17.3484 6.10366 17.2115 5.96668 17.069 5.88441C16.6823 5.66115 16.2058 5.66115 15.8191 5.88441C15.6766 5.96668 15.5397 6.10366 15.2657 6.37762L14.9711 6.6722M11.4361 14.9206L7.01733 19.3394C6.74337 19.6133 6.60639 19.7503 6.4639 19.8326C6.0772 20.0558 5.60077 20.0558 5.21408 19.8326C5.07158 19.7503 4.9346 19.6133 4.66065 19.3394C4.38669 19.0654 4.24971 18.9284 4.16744 18.7859C3.94419 18.3992 3.94419 17.9228 4.16744 17.5361C4.24971 17.3936 4.38669 17.2566 4.66065 16.9827L9.07942 12.5639M8.49025 11.9747L12.0253 15.5097C13.414 16.8984 14.1083 17.5928 14.9711 17.5928C15.8339 17.5928 16.5283 16.8984 17.917 15.5097C19.3057 14.1211 20 13.4267 20 12.5639C20 11.7011 19.3057 11.0067 17.917 9.61805L14.382 6.08303C12.9933 4.69434 12.2989 4 11.4361 4C10.5733 4 9.87894 4.69434 8.49025 6.08303C7.10156 7.47172 6.40722 8.16606 6.40722 9.02888C6.40722 9.8917 7.10156 10.586 8.49025 11.9747Z" stroke="#334155"/>
</svg>
