<svg width="20" height="20" viewBox="0 0 20 20" fill="none" xmlns="http://www.w3.org/2000/svg">
<path d="M1.66669 9.99999C1.66669 6.8573 1.66669 5.28595 2.643 4.30964C3.61931 3.33333 5.19066 3.33333 8.33335 3.33333H11.6667C14.8094 3.33333 16.3807 3.33333 17.357 4.30964C18.3334 5.28595 18.3334 6.8573 18.3334 9.99999V11.6667C18.3334 14.8094 18.3334 16.3807 17.357 17.357C16.3807 18.3333 14.8094 18.3333 11.6667 18.3333H8.33335C5.19066 18.3333 3.61931 18.3333 2.643 17.357C1.66669 16.3807 1.66669 14.8094 1.66669 11.6667V9.99999Z" stroke="#4B87FE" stroke-width="1.5"/>
<path d="M5.83331 3.33333V2.08333" stroke="#4B87FE" stroke-width="1.5" stroke-linecap="round"/>
<path d="M14.1667 3.33333V2.08333" stroke="#4B87FE" stroke-width="1.5" stroke-linecap="round"/>
<circle cx="13.75" cy="13.75" r="1.25" stroke="#4B87FE" stroke-width="1.5"/>
<path d="M2.08331 7.5H17.9166" stroke="#4B87FE" stroke-width="1.5" stroke-linecap="round"/>
</svg>
