<svg width="20" height="20" viewBox="0 0 20 20" fill="none" xmlns="http://www.w3.org/2000/svg">
<path d="M1.66669 9.16667C1.66669 6.80965 1.66669 5.63114 2.39892 4.8989C3.13115 4.16667 4.30966 4.16667 6.66669 4.16667H10.8334C13.1904 4.16667 14.3689 4.16667 15.1011 4.8989C15.8334 5.63114 15.8334 6.80965 15.8334 9.16667C15.8334 11.5237 15.8334 12.7022 15.1011 13.4344C14.3689 14.1667 13.1904 14.1667 10.8334 14.1667H6.66669C4.30966 14.1667 3.13115 14.1667 2.39892 13.4344C1.66669 12.7022 1.66669 11.5237 1.66669 9.16667Z" stroke="#4B87FE" stroke-width="1.5"/>
<path d="M15.8335 6.73015C16.6461 6.81007 17.1931 6.99071 17.6013 7.39895C18.3335 8.13118 18.3335 9.30969 18.3335 11.6667C18.3335 14.0237 18.3335 15.2023 17.6013 15.9345C16.8691 16.6667 15.6905 16.6667 13.3335 16.6667H9.16686C6.80983 16.6667 5.63132 16.6667 4.89909 15.9345C4.49084 15.5262 4.31021 14.9793 4.23029 14.1667" stroke="#4B87FE" stroke-width="1.5"/>
<path d="M10.8334 9.16666C10.8334 10.3173 9.90061 11.25 8.75002 11.25C7.59943 11.25 6.66669 10.3173 6.66669 9.16666C6.66669 8.01607 7.59943 7.08333 8.75002 7.08333C9.90061 7.08333 10.8334 8.01607 10.8334 9.16666Z" stroke="#4B87FE" stroke-width="1.5"/>
<path d="M13.3333 10.8333L13.3333 7.5" stroke="#4B87FE" stroke-width="1.5" stroke-linecap="round"/>
<path d="M4.16669 10.8333L4.16669 7.5" stroke="#4B87FE" stroke-width="1.5" stroke-linecap="round"/>
</svg>
